<svg xmlns="http://www.w3.org/2000/svg" width="246.651" height="62.302" viewBox="0 0 246.651 62.302">
  <path id="pulse-heart-rate-electrocardiography-clip-art-heart-beat-879966f0a340679a347e7b69d09869a8" d="M34.6,879.854a2.668,2.668,0,0,1,2.185-.669q28.866.109,57.712.207,19.129.073,38.279.134h.945c.084-.17.147-.328.21-.486.462-.961.945-1.933,1.429-2.894.294-.584.609-1.167.9-1.751.336-.681.672-1.362,1.029-2.031.231-.45.5-.888.693-1.338s1.05-.693,1.723-.693c.861.012,1.45.328,1.576.815.357,1.228.693,2.456,1.05,3.685.294,1.009.609,2.019.9,3.028.336,1.167.693,2.347,1.029,3.514s.672,2.323,1.029,3.49c.336,1.167.672,2.323,1.029,3.49.294,1.034.609,2.067.924,3.1.336,1.155.672,2.3,1.008,3.454s.693,2.347,1.029,3.514l1.008,3.393a.307.307,0,0,0,.168.195c.021-.073.063-.146.084-.219.231-1.69.441-3.393.693-5.083.336-2.25.672-4.487,1.029-6.737.336-2.225.672-4.451,1.029-6.676.336-2.238.672-4.475,1.029-6.7.294-1.946.609-3.879.9-5.825.336-2.25.693-4.487,1.029-6.737.336-2.225.672-4.451,1.029-6.676.294-1.958.609-3.928.924-5.886.126-.827.294-1.654.441-2.469.084-.486.735-.8,1.66-.8.756,0,1.6.292,1.639.8.063.5.147,1.009.231,1.508l.945,5.29c.378,2.1.735,4.208,1.113,6.3.315,1.788.651,3.563.966,5.351.336,1.824.651,3.66.966,5.484.336,1.958.672,3.916,1.029,5.874.294,1.63.63,3.259,1.092,5a1.32,1.32,0,0,1,.189-.243c.42-.438.861-.863,1.3-1.3.756-.754,1.492-1.508,2.29-2.238a2.081,2.081,0,0,1,1.408-.486c.777-.012,1.555-.024,2.311-.024H279.125a5.311,5.311,0,0,1,1.261.134c.651.158.9.438.861.79s-.441.608-1.092.705a7.713,7.713,0,0,1-1.071.073q-51.745,0-103.491-.012a1.889,1.889,0,0,0-1.555.547c-.84.851-1.681,1.69-2.542,2.529-.777.754-1.555,1.508-2.4,2.225a3.15,3.15,0,0,1-1.849.8c-1.134.1-1.849-.268-1.975-.912-.315-1.569-.5-3.15-.777-4.718-.273-1.617-.588-3.247-.861-4.864q-.6-3.484-1.2-6.956c-.294-1.715-.609-3.417-.924-5.12s-.609-3.417-.924-5.12c0-.024-.021-.061-.105-.17a1.558,1.558,0,0,0-.21.353c-.273,2.043-.525,4.086-.819,6.129-.252,1.775-.567,3.551-.84,5.326-.042.268-.063.523-.105.79-.336,2.165-.651,4.317-.987,6.482-.273,1.775-.567,3.551-.84,5.326-.042.268-.063.523-.105.79-.357,2.42-.735,4.84-1.092,7.26-.294,1.982-.609,3.964-.924,5.946l-1.008,6.6c-.231,1.5-.483,2.979-.714,4.475a6.2,6.2,0,0,0-.063.62c-.042.5-.714.912-1.555.949-.924.036-1.744-.292-1.891-.815-.273-.924-.483-1.861-.756-2.8-.336-1.216-.693-2.432-1.05-3.648-.294-1.022-.609-2.043-.9-3.064-.336-1.167-.672-2.323-1.029-3.49-.336-1.167-.672-2.323-1.029-3.49-.336-1.167-.672-2.347-1.029-3.514-.294-1.021-.609-2.043-.9-3.065-.336-1.167-.672-2.323-1.029-3.49-.336-1.167-.672-2.323-1.029-3.49-.294-1.034-.609-2.067-.924-3.1a9.347,9.347,0,0,0-.42-.949c-.021.024-.105.061-.126.1-.483.985-.945,1.97-1.429,2.955-.315.632-.63,1.253-.945,1.873a2.235,2.235,0,0,1-1.954.693c-4.391-.036-8.8-.049-13.194-.061q-42.354-.146-84.73-.28a2.75,2.75,0,0,1-2.143-.657A.415.415,0,0,1,34.6,879.854Z" transform="translate(-34.6 -848.2)" fill="#d50f16"/>
</svg>
