<svg id="_24-hours-open-svgrepo-com" data-name="24-hours-open-svgrepo-com" xmlns="http://www.w3.org/2000/svg" width="105.174" height="105.174" viewBox="0 0 105.174 105.174">
  <path id="Path_33" data-name="Path 33" d="M120.584,192.634H141.06a.479.479,0,0,0,.506-.506v-5.016a.479.479,0,0,0-.506-.5H129v-.1l9.069-10.693a12.213,12.213,0,0,0,3.5-8.357c0-5.58-4-9.83-10.587-9.83-6.639,0-10.5,4.153-10.849,8.915a.492.492,0,0,0,.407.61l5.573.908c.355.053.555-.1.555-.4.3-2.635,1.726-4.054,4.056-4.054a3.621,3.621,0,0,1,3.751,3.952,7.067,7.067,0,0,1-2.026,4.767l-12.109,14.389a.938.938,0,0,0-.26.709v4.709A.479.479,0,0,0,120.584,192.634Z" transform="translate(-95.41 -125.248)" fill="#fff"/>
  <path id="Path_34" data-name="Path 34" d="M52.587,0a52.587,52.587,0,1,0,52.587,52.587A52.586,52.586,0,0,0,52.587,0Zm0,9.951V95.223a42.636,42.636,0,1,1,0-85.273Zm14.553,46.2v.151h6.33l.3-.307V48.555a.478.478,0,0,1,.508-.5h5.876a.476.476,0,0,1,.506.5V56l.305.307H83.25a.479.479,0,0,1,.5.509v5.114a.476.476,0,0,1-.5.506H80.969l-.305.3v4.205a.475.475,0,0,1-.506.506H74.281a.477.477,0,0,1-.508-.506V62.741l-.3-.3H60.045a.477.477,0,0,1-.508-.506V56.765l.1-.61L69.975,33.4a.669.669,0,0,1,.7-.405h6.439c.35,0,.454.2.35.511Z" fill="#fff"/>
</svg>
