<svg xmlns="http://www.w3.org/2000/svg" width="104.587" height="60.616" viewBox="0 0 104.587 60.616">
  <path id="funeral-dead-end-fatal-svgrepo-com" d="M56.79,75.514l49.637,8.138a4.671,4.671,0,0,1-.773,9.279H53.66V75.146C54.691,75.256,55.759,75.367,56.79,75.514Zm55.748,49.64-1.8-6.108V95.914H9.841v23.164L8,125.154V132H112.587Zm-101.593.436,1.841-6.076V98.86h95v20.613l1.806,6.118.025,3.464H10.946Zm7.033-32.512a7.438,7.438,0,1,0-7.438-7.438A7.441,7.441,0,0,0,17.979,93.078Zm14.177-.147H46.075a4.62,4.62,0,0,0,4.64-4.64V74.63a3.188,3.188,0,0,0-2.909-3.24,3.137,3.137,0,0,0-3.351,3.13v9.942a1.473,1.473,0,1,1-2.946,0V76.729a31.928,31.928,0,0,0-12.777,7.7A5.728,5.728,0,0,0,27.3,89.4,4.951,4.951,0,0,0,32.156,92.931Zm17.331,23.6H23.834v2.946H49.487Zm47.256,0H71.09v2.946H96.743Z" transform="translate(-8 -71.384)" fill="#fff"/>
</svg>
