<svg xmlns="http://www.w3.org/2000/svg" width="80" height="80" viewBox="0 0 80 80">
  <path id="paper-svgrepo-com" d="M0,80,10,70,20,80,30,70,40,80,50,70,60,80,70,70,80,80V15.04A14.5,14.5,0,0,0,75.6,4.4,14.4,14.4,0,0,0,65.04,0h-50A14.5,14.5,0,0,0,4.4,4.4,14.5,14.5,0,0,0,0,15.04V80ZM10,55.04v-40a4.788,4.788,0,0,1,1.44-3.52A5.171,5.171,0,0,1,15.04,10h50a4.832,4.832,0,0,1,3.52,1.52A4.556,4.556,0,0,1,70,15.04v40l-10,10-10-10-10,10-10-10-10,10Zm10-10H60V40H20Zm0-10H60V30H20Zm0-10H60V20H20Z" fill="#c82a2a"/>
</svg>
