<svg xmlns="http://www.w3.org/2000/svg" width="75" height="82.143" viewBox="0 0 75 82.143">
  <path id="hotel-building-svgrepo-com" d="M19.52,0,17.508,4.164l-4.579.548,3.481,3.076L15.492,12.5l4.028-2.354L23.552,12.5l-.917-4.712,3.481-3.076-4.579-.548Zm4.032,12.5H13.466A9.37,9.37,0,0,0,4,21.966V80.357a1.791,1.791,0,0,0,1.786,1.786H36.143V64.286H46.857V82.143H77.214A1.791,1.791,0,0,0,79,80.357V21.966A9.37,9.37,0,0,0,69.534,12.5H23.552Zm6.592,0,4.028-2.354L38.2,12.5l-.917-4.712,3.481-3.076-4.579-.548L34.172,0,32.16,4.164l-4.579.548,3.481,3.076Zm14.652,0,4.032-2.354L52.856,12.5l-.917-4.712,3.481-3.076L50.84,4.164,48.828,0,46.812,4.164l-4.579.548,3.481,3.076Zm14.652,0,4.032-2.354L67.508,12.5l-.917-4.712,3.481-3.076-4.579-.548L63.48,0,61.464,4.164l-4.579.548,3.481,3.076ZM14.714,21.429H25.429v7.143H14.714Zm21.429,0H46.857v7.143H36.143Zm21.429,0H68.286v7.143H57.571ZM14.714,35.714H25.429v7.143H14.714Zm21.429,0H46.857v7.143H36.143Zm21.429,0H68.286v7.143H57.571ZM14.714,50H25.429v7.143H14.714Zm21.429,0H46.857v7.143H36.143Zm21.429,0H68.286v7.143H57.571ZM14.714,64.286H25.429v7.143H14.714Zm42.857,0H68.286v7.143H57.571Z" transform="translate(-4)" fill="#fffefe"/>
</svg>
