<svg xmlns="http://www.w3.org/2000/svg" width="102" height="99.96" viewBox="0 0 102 99.96">
  <path id="ambulance-svgrepo-com" d="M53.04,0A2.044,2.044,0,0,0,51,2.04V6.12a2.04,2.04,0,1,0,4.08,0V2.04A2.039,2.039,0,0,0,53.04,0ZM38.632,5.992a2.07,2.07,0,0,0-1.466.574,2.02,2.02,0,0,0,0,2.869l2.869,2.932a2.16,2.16,0,0,0,2.932,0,2.1,2.1,0,0,0,0-2.932L40.035,6.566A1.926,1.926,0,0,0,38.632,5.992Zm28.815,0a1.926,1.926,0,0,0-1.4.574L63.112,9.435a2.1,2.1,0,0,0,0,2.932,2.16,2.16,0,0,0,2.932,0l2.869-2.932a2.02,2.02,0,0,0,0-2.869A2.071,2.071,0,0,0,67.448,5.992ZM53.04,12.24a8.166,8.166,0,0,0-8.16,8.16v2.04H61.2V20.4A8.166,8.166,0,0,0,53.04,12.24Zm-20.4,6.12a2.04,2.04,0,1,0,0,4.08h4.08a2.04,2.04,0,0,0,0-4.08Zm36.72,0a2.04,2.04,0,1,0,0,4.08h4.08a2.04,2.04,0,0,0,0-4.08ZM5.674,26.52A5.658,5.658,0,0,0,0,32.13V82.11a5.658,5.658,0,0,0,5.674,5.61H14.28a12.24,12.24,0,0,0,24.48,0H67.32a12.24,12.24,0,0,0,24.48,0h4.526A5.658,5.658,0,0,0,102,82.11V67.83c0-3.929-2.8-7.929-3.06-8.288l-18.424-28.5a3.054,3.054,0,0,0-.191-.255l-.382-.383c-1.578-1.9-3.156-3.889-6.566-3.889ZM65.28,36.72H79.241l14.6,22.44H65.28ZM28.56,42.84h4.08V51H40.8v4.08H32.64v8.16H28.56V55.08H20.4V51h8.16ZM26.52,79.56a8.16,8.16,0,1,1-8.16,8.16A8.166,8.166,0,0,1,26.52,79.56Zm53.04,0a8.16,8.16,0,1,1-8.16,8.16A8.166,8.166,0,0,1,79.56,79.56Z" fill="#fff"/>
</svg>
