<svg xmlns="http://www.w3.org/2000/svg" width="74" height="76.775" viewBox="0 0 74 76.775">
  <g id="medical-kit-svgrepo-com" transform="translate(-2 -1.25)">
    <path id="Path_30" data-name="Path 30" d="M18.075,11.75a2.775,2.775,0,0,1,2.775,2.775V17.3h2.775a2.775,2.775,0,1,1,0,5.55H20.85v2.775a2.775,2.775,0,0,1-5.55,0V22.85H12.525a2.775,2.775,0,1,1,0-5.55H15.3V14.525A2.775,2.775,0,0,1,18.075,11.75Z" transform="translate(20.925 28.35)" fill="#fff" fill-rule="evenodd"/>
    <path id="Path_31" data-name="Path 31" d="M38.808,1.25a67.8,67.8,0,0,0-8.3.3A10.08,10.08,0,0,0,24.405,4.23a10.08,10.08,0,0,0-2.685,6.105,67.8,67.8,0,0,0-.3,8.3v.288c-7.478.245-11.969,1.119-15.09,4.24C2,27.495,2,34.472,2,48.425S2,69.356,6.335,73.69,17.646,78.025,31.6,78.025H46.4c13.953,0,20.931,0,25.265-4.335S76,62.378,76,48.425s0-20.93-4.335-25.265c-3.121-3.121-7.612-4-15.09-4.24v-.288a67.793,67.793,0,0,0-.3-8.3A10.08,10.08,0,0,0,53.595,4.23a10.079,10.079,0,0,0-6.1-2.685,67.8,67.8,0,0,0-8.3-.3ZM51.025,18.832v-.007a65.673,65.673,0,0,0-.246-7.75,4.68,4.68,0,0,0-1.109-2.92,4.678,4.678,0,0,0-2.92-1.108A65.631,65.631,0,0,0,39,6.8a65.632,65.632,0,0,0-7.75.246,4.678,4.678,0,0,0-2.92,1.108,4.678,4.678,0,0,0-1.108,2.92,65.624,65.624,0,0,0-.246,7.75v.007q2.176-.01,4.625-.007H46.4Q48.853,18.825,51.025,18.832ZM53.8,48.425A14.8,14.8,0,1,1,39,33.625,14.8,14.8,0,0,1,53.8,48.425Z" transform="translate(0 0)" fill="#fff" fill-rule="evenodd"/>
  </g>
</svg>
