<svg xmlns="http://www.w3.org/2000/svg" width="100.189" height="103" viewBox="0 0 100.189 103">
  <g id="medicine-9-svgrepo-com" transform="translate(-6.986 0)">
    <path id="Path_32" data-name="Path 32" d="M100.373,46.484,60.219,6.784l.009.019A23.223,23.223,0,1,0,27.385,39.645l9.476,9.375c-.286-.009-.572-.009-.857-.009A38.213,38.213,0,0,0,15.89,54.274a21.192,21.192,0,0,0-6.407,5.991,13.9,13.9,0,0,0-2.5,7.817V83.918a13.9,13.9,0,0,0,2.5,7.817,23.955,23.955,0,0,0,10.684,8.214A40.955,40.955,0,0,0,36,103a38.283,38.283,0,0,0,20.1-5.273,21.129,21.129,0,0,0,6.415-5.991,13.952,13.952,0,0,0,2.489-7.817v-7.07l2.526,2.5-.009-.02a23.224,23.224,0,1,0,32.844-32.844ZM34.041,29.911a9.991,9.991,0,0,1,7.116-17.006ZM11.595,68.082A9.353,9.353,0,0,1,13.3,62.837,16.17,16.17,0,0,1,17.6,58.672L52.863,79.311a27.263,27.263,0,0,1-2.545,1.235A36.9,36.9,0,0,1,36,83.283c-7.117.01-13.533-1.816-18.058-4.664a17.449,17.449,0,0,1-5.254-4.885,11.777,11.777,0,0,1-1.1-2.028V68.082ZM60.4,83.919a9.291,9.291,0,0,1-1.7,5.244,19.537,19.537,0,0,1-8.665,6.547A36.252,36.252,0,0,1,36,98.392c-6.988,0-13.283-1.8-17.661-4.563A16.77,16.77,0,0,1,13.3,89.163a9.344,9.344,0,0,1-1.706-5.244V77.384a25.021,25.021,0,0,0,8.858,6.046A40.067,40.067,0,0,0,36,86.418,37.463,37.463,0,0,0,55.72,81.263,21.589,21.589,0,0,0,60.4,77.392Zm0-12.213a3.845,3.845,0,0,1-.185.405,10.839,10.839,0,0,1-.913,1.622,15.552,15.552,0,0,1-3.051,3.281L21.338,56.587c.212-.092.415-.2.627-.286A36.268,36.268,0,0,1,36,53.619a39.036,39.036,0,0,1,5.973.453,30.975,30.975,0,0,1,11.679,4.1c.378.231.738.48,1.078.73a15.645,15.645,0,0,1,3.918,3.881.259.259,0,0,1,.047.053,9.3,9.3,0,0,1,1.7,5.246v3.623Zm36.06,3.714a17.7,17.7,0,0,1-25.027,0l-.009-.009-6.415-6.342v-.986a13.947,13.947,0,0,0-2.489-7.817,22.6,22.6,0,0,0-8.452-7.152,32.468,32.468,0,0,1,1.7-3.7,34.3,34.3,0,0,1,8.767-10.712,25.182,25.182,0,0,1,14.481-5.56l17.44,17.247h.009a17.7,17.7,0,0,1,0,25.026Z" transform="translate(0 0)" fill="#fff"/>
  </g>
</svg>
