<svg id="payment-svgrepo-com_3_" data-name="payment-svgrepo-com (3)" xmlns="http://www.w3.org/2000/svg" width="103.384" height="103.384" viewBox="0 0 103.384 103.384">
  <path id="Path_25" data-name="Path 25" d="M0,0H103.384V103.384H0Z" fill="none"/>
  <g id="Shopicon" transform="translate(12.923 8.615)">
    <path id="Path_26" data-name="Path 26" d="M21.077,4H14.615A8.641,8.641,0,0,0,6,12.615V64.21a8.641,8.641,0,0,0,8.615,8.615h6.461Z" transform="translate(-6 -4)" fill="#fff"/>
    <path id="Path_27" data-name="Path 27" d="M70.492,41.679,48.462,19.652V12.615A8.641,8.641,0,0,0,39.847,4H24.77V72.826H39.847a8.641,8.641,0,0,0,8.615-8.615v-8l4.566,4.566,6.093-6.091L49.078,44.647,35.507,31.076a4.326,4.326,0,0,1,0-6.1,4.427,4.427,0,0,1,6.1,0l9.009,9.012L64.435,47.807l-.155-.047.235.155c.282.424,1.178,2.042,1.178,5.527v28H31.232c-4.125,0-7.765-3.517-8.471-8.182l-.05-.336H14l.246,1.624c1.338,8.841,8.641,15.51,16.989,15.51H74.311V53.441C74.308,45.963,71.414,42.569,70.492,41.679Z" transform="translate(3.229 -4)" fill="#fff"/>
  </g>
</svg>
