<svg id="translate-svgrepo-com" xmlns="http://www.w3.org/2000/svg" width="84" height="84" viewBox="0 0 84 84">
  <path id="Path_28" data-name="Path 28" d="M11.111,22.5,8.828,29.25H3L12.775,3h6.741L29.25,29.25H23.123L20.84,22.5H11.111Zm8.579-3.864L16.125,8.019h-.257L12.3,18.635h7.392Z" transform="translate(12.75 12.75)" fill="#fff"/>
  <path id="Path_29" data-name="Path 29" d="M0,10.5A10.5,10.5,0,0,1,10.5,0H47.25a10.5,10.5,0,0,1,10.5,10.5V26.25H73.5A10.5,10.5,0,0,1,84,36.75V73.5A10.5,10.5,0,0,1,73.5,84H36.75a10.5,10.5,0,0,1-10.5-10.5V57.75H10.5A10.5,10.5,0,0,1,0,47.25ZM10.5,5.25A5.25,5.25,0,0,0,5.25,10.5V47.25A5.25,5.25,0,0,0,10.5,52.5H47.25a5.25,5.25,0,0,0,5.25-5.25V10.5a5.25,5.25,0,0,0-5.25-5.25ZM47.975,57.724a38.4,38.4,0,0,0,3.307,4.441A40.716,40.716,0,0,1,36.75,68.948,26.4,26.4,0,0,1,39.664,73.5a45.971,45.971,0,0,0,15.152-7.843A37.618,37.618,0,0,0,70.2,73.384a23.619,23.619,0,0,1,3.3-4.673A37.162,37.162,0,0,1,58.7,61.971,42.469,42.469,0,0,0,67.205,47.5H73.5V42H57.75v5.5h4.016a34.247,34.247,0,0,1-6.678,11.182A31.845,31.845,0,0,1,52.91,56.1a10.437,10.437,0,0,1-4.935,1.627Z" fill="#fff"/>
</svg>
